<svg id="Ebene_1" data-name="Ebene 1" xmlns="http://www.w3.org/2000/svg" xmlns:xlink="http://www.w3.org/1999/xlink" viewBox="0 0 771.58 1152.37"><defs><style>.cls-1{fill:none;}.cls-2{clip-path:url(#clip-path);}.cls-3{fill:#e4c6aa;}.cls-4{fill:#d7b495;}.cls-5{fill:#42484f;}.cls-6{fill:#edeff1;}.cls-7{fill:#626870;}.cls-8{fill:#faf9f9;}.cls-9{fill:#596f82;}.cls-10{fill:#eae4d9;}.cls-11{fill:#62a987;}.cls-12{font-size:60px;}.cls-12,.cls-16{fill:#1f1e21;font-family:MyriadPro-Regular, Myriad Pro;}.cls-13{letter-spacing:-0.01em;}.cls-14{letter-spacing:-0.01em;}.cls-15{letter-spacing:-0.01em;}.cls-16{font-size:100px;}</style><clipPath id="clip-path" transform="translate(-135.72 -261.31)"><rect class="cls-1" x="108" y="237" width="828" height="963"/></clipPath></defs><title>celular</title><g class="cls-2"><path class="cls-3" d="M497.55,711.79,497,711c-14.2-22-4.7-53.33,21.21-70.09l309.33-200c25.91-16.76,58.42-12.55,72.62,9.4l.52.8c14.2,22,4.7,53.33-21.21,70.09l-309.33,200C544.26,737.95,511.75,733.74,497.55,711.79Z" transform="translate(-135.72 -261.31)"/><path class="cls-4" d="M762.79,721.16l-.66-.66c-18.12-18.17-18.26-47.42-.31-65.32l50-49.07c17.95-17.9,47.19-17.67,65.31.5l.66.66c18.12,18.17,18.26,47.42.31,65.31l-50,49.07C810.15,739.56,780.91,739.33,762.79,721.16Z" transform="translate(-135.72 -261.31)"/><path class="cls-4" d="M756.91,819.56l-.61-.74C739.55,798.64,742,769,761.76,752.6l55-44.86c19.76-16.39,49.35-13.31,66.1,6.87l.61.74c16.74,20.19,14.3,49.84-5.46,66.23l-55,44.86C803.25,842.83,773.66,839.75,756.91,819.56Z" transform="translate(-135.72 -261.31)"/><path class="cls-4" d="M770.26,894.81l-.4-.73c-10.88-20.06-3.78-44.95,15.85-55.6l54.48-29c19.63-10.65,44.36-3,55.24,17l.4.73c10.88,20.06,3.78,44.95-15.85,55.6l-54.48,29C805.87,922.5,781.13,914.87,770.26,894.81Z" transform="translate(-135.72 -261.31)"/><path class="cls-3" d="M468.7,1047.44l-3.54-2.26c-43.53-27.72-73.62-54-100-72.85-40.4-28.9-55.78-84-24.15-173L516.86,609.58c84.34-75,108.45-43.81,193.29,32.8l18.74,15.23c89,69.11,94.43,153.91,99.57,183.91,3.51,20.5,4.69,46.86,4.69,46.86,0,15.23-1.79,55.22-28.11,76.14-68.53,54.47-112.92,139.82-172.2,152.29C589.07,1126,536.83,1090.83,468.7,1047.44Z" transform="translate(-135.72 -261.31)"/><rect class="cls-3" x="232.37" y="982.18" width="362.12" height="293.44" transform="translate(-896.56 609.86) rotate(-57.51)"/><path class="cls-5" d="M778.84,261.31H511.68a58.39,58.39,0,0,0-58.31,58.33v695.81a58.38,58.38,0,0,0,58.31,58.31H778.84a58.38,58.38,0,0,0,58.31-58.31V319.64A58.39,58.39,0,0,0,778.84,261.31Z" transform="translate(-135.72 -261.31)"/><rect class="cls-6" x="341.59" y="110.99" width="334.63" height="593.97"/><path class="cls-7" d="M670,317.42H619.23a8.14,8.14,0,1,0,0,16.28H670a8.14,8.14,0,1,0,0-16.28Z" transform="translate(-135.72 -261.31)"/><path class="cls-7" d="M677.05,1009.12H612.2c-5.72,0-10.43,5.39-10.43,12s4.71,12,10.43,12h64.85c5.73,0,10.43-5.43,10.43-12S682.78,1009.12,677.05,1009.12Z" transform="translate(-135.72 -261.31)"/><path class="cls-8" d="M509.55,1291.93,223.1,1106.42a3.81,3.81,0,0,1-1.13-5.26l43.45-67.09a3.81,3.81,0,0,1,5.26-1.13l286.45,185.52a3.81,3.81,0,0,1,1.13,5.26l-43.45,67.09A3.81,3.81,0,0,1,509.55,1291.93Z" transform="translate(-135.72 -261.31)"/><circle class="cls-9" cx="276.29" cy="1080.27" r="13.79" transform="translate(-916.35 463.63) rotate(-57.07)"/><path class="cls-9" d="M448.15,1412.55,139,1212.31a7.16,7.16,0,0,1-2.08-9.91l75.57-116.69a7.16,7.16,0,0,1,9.89-2.16l309.19,200.24a7.16,7.16,0,0,1,2.08,9.91L458,1410.39A7.16,7.16,0,0,1,448.15,1412.55Z" transform="translate(-135.72 -261.31)"/><path class="cls-4" d="M379.92,910.54h-3c-26.66-2.78-43.26-28-39.87-53l36.69-271c7.31-40.09,29.57-41.33,56.23-38.55l1,.1c30.15,6.25,35,41.89,35.11,76.43a76.88,76.88,0,0,1-.63,9.88L436.74,862.25C433.35,887.27,406.58,913.32,379.92,910.54Z" transform="translate(-135.72 -261.31)"/><path class="cls-3" d="M367.66,913.37l-1-.13c-26.77-3.43-45.05-27-40.83-52.65,0,0,49.27-236.08,45.78-277.76-3.22-38.5,31.13-41.85,57.91-38.42l1,.13c31.63,7.41,39.21,57,34.09,85.51l-40.82,243.1C419.56,898.79,394.43,916.8,367.66,913.37Z" transform="translate(-135.72 -261.31)"/><path class="cls-10" d="M397.95,545.06a22.5,22.5,0,0,0-11.13,2.07,24.86,24.86,0,0,0-14.72,20.65c-2.11,19.43-4.73,49.57-2.44,52.86s12.08,6.53,24.06,2.14,14.49-6.44,17.4-16,1.68-45.5.77-49C411.07,554.6,409.51,546,397.95,545.06Z" transform="translate(-135.72 -261.31)"/><path class="cls-3" d="M747.49,678.75l-.35-.84c-9.45-22.85.79-49,22.87-58.33l61.21-25.4c22.08-9.37,47.63,1.56,57.08,24.41l.35.84c9.45,22.85-.79,49-22.87,58.33l-61.21,25.4C782.5,712.53,756.94,701.6,747.49,678.75Z" transform="translate(-135.72 -261.31)"/><path class="cls-10" d="M814,651l-.23-.58c-6.27-15.74-16.5-26.37-35-18.7l-16,6.63c-18.53,7.67-20.88,23.5-14.61,39.24l.23.58c6.27,15.74,18.77,25.44,37.31,17.76l16-6.63C820.16,681.64,820.23,666.75,814,651Z" transform="translate(-135.72 -261.31)"/><path class="cls-3" d="M746.56,785.7l-.35-.84c-9.6-23,.8-49.21,23.23-58.63l62.18-25.53c22.43-9.42,48.38,1.57,58,24.53l.35.84c9.6,23-.8,49.21-23.23,58.63l-62.18,25.53C782.12,819.65,756.16,808.66,746.56,785.7Z" transform="translate(-135.72 -261.31)"/><path class="cls-10" d="M811.86,758.11l-.23-.56c-6.18-15.35-16.26-25.71-34.52-18.23l-15.77,6.46c-18.26,7.48-20.57,22.91-14.39,38.25l.23.56c6.18,15.35,18.5,24.8,36.76,17.32l15.77-6.46C818,788,818,773.46,811.86,758.11Z" transform="translate(-135.72 -261.31)"/><path class="cls-3" d="M752.1,888.78l-.33-.77c-8.94-21.14,2.21-45.9,24.91-55.31l62.91-25.56c22.7-9.41,48.34.09,57.28,21.23l.33.77c8.94,21.14-2.21,45.9-24.91,55.31L809.38,910C786.68,919.42,761,909.91,752.1,888.78Z" transform="translate(-135.72 -261.31)"/><path class="cls-10" d="M812.3,864.46l-.21-.5c-5.61-13.78-14.78-23.09-31.39-16.37l-14.34,5.8c-16.6,6.72-18.7,20.57-13.09,34.35l.21.5C759.1,902,770.3,910.52,786.9,903.8l14.34-5.8C817.85,891.29,817.91,878.24,812.3,864.46Z" transform="translate(-135.72 -261.31)"/><rect class="cls-11" x="341.59" y="110.99" width="334.63" height="78.65"/></g><text class="cls-12" transform="translate(379.28 277.69)">fully<tspan class="cls-13" x="0" y="72">r</tspan><tspan x="19.02" y="72">esponsi</tspan><tspan class="cls-14" x="211.02" y="72">v</tspan><tspan x="239.28" y="72">e</tspan><tspan class="cls-13" x="0" y="144">w</tspan><tspan x="43.56" y="144">ebsi</tspan><tspan class="cls-15" x="145.56" y="144">t</tspan><tspan x="165.06" y="144">es</tspan></text><rect class="cls-11" x="341.59" y="671.69" width="334.63" height="33.28"/><text class="cls-16" transform="translate(468.28 537.69)">: )</text></svg>